<svg xmlns="http://www.w3.org/2000/svg" viewBox="0 0 1280 640" width="1280" height="640">
  <defs>
    <linearGradient id="bgGrad" x1="0%" y1="0%" x2="100%" y2="100%">
      <stop offset="0%" stop-color="#070b0f"/>
      <stop offset="100%" stop-color="#0c1015"/>
    </linearGradient>
    <linearGradient id="brandGrad" x1="0%" y1="0%" x2="100%" y2="100%">
      <stop offset="0%" stop-color="#00E5D0"/>
      <stop offset="100%" stop-color="#f5c451"/>
    </linearGradient>
    <radialGradient id="glowCenter" cx="50%" cy="50%" r="50%">
      <stop offset="0%" stop-color="#00E5D0" stop-opacity="0.14"/>
      <stop offset="100%" stop-color="#0c1015" stop-opacity="0"/>
    </radialGradient>
    <filter id="glow2"><feGaussianBlur stdDeviation="8"/></filter>
  </defs>

  <rect width="1280" height="640" fill="url(#bgGrad)"/>
  <ellipse cx="640" cy="320" rx="520" ry="300" fill="url(#glowCenter)"/>

  <g opacity="0.05" stroke="url(#brandGrad)" stroke-width="1">
    <line x1="0" y1="120" x2="1280" y2="520"/>
    <line x1="0" y1="220" x2="1280" y2="620"/>
    <line x1="0" y1="320" x2="1280" y2="720"/>
  </g>

  <g opacity="0.10">
    <circle cx="110" cy="110" r="60" fill="none" stroke="#00E5D0" stroke-width="2"/>
    <circle cx="1175" cy="535" r="80" fill="none" stroke="#f5c451" stroke-width="2"/>
    <circle cx="1100" cy="120" r="40" fill="#00E5D0"/>
    <circle cx="205" cy="500" r="28" fill="#f5c451"/>
  </g>

  <!-- Logo claqueta -->
  <g transform="translate(140,196)">
    <rect x="0" y="0" width="168" height="168" rx="34" fill="url(#brandGrad)" filter="url(#glow2)"/>
    <rect x="0" y="0" width="168" height="168" rx="34" fill="url(#brandGrad)"/>
    <rect x="22" y="34" width="124" height="26" rx="5" fill="#0c1015"/>
    <g fill="#f5c451">
      <polygon points="30,34 46,34 38,60 22,60"/>
      <polygon points="60,34 76,34 68,60 52,60"/>
      <polygon points="90,34 106,34 98,60 82,60"/>
      <polygon points="120,34 136,34 128,60 112,60"/>
    </g>
    <polygon points="68,82 68,140 122,111" fill="#0c1015"/>
  </g>

  <text x="350" y="262" font-family="Georgia, serif" font-size="66" font-weight="700" fill="url(#brandGrad)">NeuroCopy Ads Master</text>
  <text x="352" y="306" font-family="Georgia, serif" font-style="italic" font-size="27" fill="#eaf2f2">Guiones de anuncios de vídeo POR ÁNGULO</text>
  <text x="352" y="342" font-family="Georgia, serif" font-style="italic" font-size="27" fill="#eaf2f2">para Meta · TikTok · YouTube</text>

  <g transform="translate(352,394)" font-family="Inter, sans-serif">
    <rect x="0" y="0" width="150" height="34" rx="17" fill="rgba(0,229,208,0.14)" stroke="#00E5D0"/>
    <text x="75" y="22" font-size="12.5" fill="#00E5D0" text-anchor="middle" font-weight="600">POR ÁNGULO</text>
    <rect x="164" y="0" width="200" height="34" rx="17" fill="rgba(0,229,208,0.14)" stroke="#00E5D0"/>
    <text x="264" y="22" font-size="12.5" fill="#00E5D0" text-anchor="middle" font-weight="600">REGLA DEL AVATAR</text>
    <rect x="378" y="0" width="200" height="34" rx="17" fill="rgba(245,196,81,0.14)" stroke="#f5c451"/>
    <text x="478" y="22" font-size="12.5" fill="#f5c451" text-anchor="middle" font-weight="600">2 BAJO · 2 MEDIO · 1 ALTO</text>
    <rect x="592" y="0" width="210" height="34" rx="17" fill="rgba(245,196,81,0.14)" stroke="#f5c451"/>
    <text x="697" y="22" font-size="12.5" fill="#f5c451" text-anchor="middle" font-weight="600">EL DIBUJO DEL FORMATO</text>
  </g>

  <g transform="translate(352,486)" font-family="Inter, sans-serif">
    <text x="0" y="0" font-size="40" font-weight="800" fill="url(#brandGrad)">11</text>
    <text x="0" y="20" font-size="11" fill="#8089a0" letter-spacing="1.5">AGENTES</text>
    <text x="120" y="0" font-size="40" font-weight="800" fill="url(#brandGrad)">6</text>
    <text x="120" y="20" font-size="11" fill="#8089a0" letter-spacing="1.5">COMMANDS</text>
    <text x="240" y="0" font-size="40" font-weight="800" fill="url(#brandGrad)">15</text>
    <text x="240" y="20" font-size="11" fill="#8089a0" letter-spacing="1.5">KNOWLEDGE</text>
    <text x="380" y="0" font-size="40" font-weight="800" fill="url(#brandGrad)">5</text>
    <text x="380" y="20" font-size="11" fill="#8089a0" letter-spacing="1.5">ANUNCIOS/ÁNGULO</text>
    <text x="600" y="0" font-size="40" font-weight="800" fill="url(#brandGrad)">4</text>
    <text x="600" y="20" font-size="11" fill="#8089a0" letter-spacing="1.5">GANCHOS/ANUNCIO</text>
  </g>

  <text x="640" y="608" font-family="Inter, sans-serif" font-size="13" fill="#6b7588" text-anchor="middle">
    JOSEPH MORENO · ZENITH · NEUROCOPY + MÉTODO AUDIENCE + ZENITH CREA OFERTAS + MASTERCLASS META ADS 2026
  </text>
</svg>
